<svg version="1.1" xmlns="http://www.w3.org/2000/svg" xmlns:xlink="http://www.w3.org/1999/xlink" viewBox="0 0 60 60" xml:space="preserve" data-animoptions="{'duration':'0.4', 'repeat':'0', 'repeatDelay':'0.06'}">
	<g class="lievo-main">
		<g class="lievo-common">
			<path class="lievo-altstroke lievo-donotdraw" fill="#EB9532" stroke="#E67E22" stroke-width="2" stroke-miterlimit="10" d="M30 14c-1.66 0-3 1.33-3 2.97v5.62c-0.69 0.28-1.33 0.66-1.92 1.11l-4.87-2.81c-1.42-0.82-3.24-0.32-4.07 1.12 -0.83 1.43-0.35 3.26 1.07 4.08l4.87 2.81C22.04 29.26 22 29.62 22 30c0 0.38 0.04 0.74 0.08 1.1l-4.87 2.81c-1.42 0.82-1.9 2.65-1.07 4.08 0.83 1.44 2.65 1.94 4.07 1.12l4.87-2.81c0.58 0.45 1.22 0.83 1.92 1.11v5.62c0 1.64 1.34 2.97 3 2.97 1.66 0 3-1.33 3-2.97v-5.62c0.69-0.28 1.33-0.66 1.92-1.11l4.87 2.81c1.42 0.82 3.24 0.32 4.07-1.12 0.83-1.43 0.35-3.26-1.07-4.08l-4.87-2.81C37.96 30.74 38 30.38 38 30c0-0.38-0.04-0.74-0.08-1.11l4.87-2.81c1.42-0.82 1.9-2.65 1.07-4.08 -0.83-1.43-2.65-1.93-4.07-1.11l-4.87 2.81c-0.58-0.45-1.22-0.83-1.91-1.11v-5.62C33 15.33 31.66 14 30 14z" opacity="0" data-animdata="
                {
                    'steps':[
                        {
                            'position':'5',
                            'duration':'0',
                            'vars':{
                                'opacity':'1',
                                'svgOrigin':'30px 30px'
                            }
                        },
                        {
                            'position':'+=0',
                            'duration':'2',
                            'vars':{
                                'scale':'1.4',
                                'opacity':'0'
                            }
                        }
                    ]
                }
            "/>
            <path class="lievo-altstroke" fill="#EB9532" stroke="#E67E22" stroke-width="2" stroke-miterlimit="10" d="M30 14c-1.66 0-3 1.33-3 2.97v5.62c-0.69 0.28-1.33 0.66-1.92 1.11l-4.87-2.81c-1.42-0.82-3.24-0.32-4.07 1.12 -0.83 1.43-0.35 3.26 1.07 4.08l4.87 2.81C22.04 29.26 22 29.62 22 30c0 0.38 0.04 0.74 0.08 1.1l-4.87 2.81c-1.42 0.82-1.9 2.65-1.07 4.08 0.83 1.44 2.65 1.94 4.07 1.12l4.87-2.81c0.58 0.45 1.22 0.83 1.92 1.11v5.62c0 1.64 1.34 2.97 3 2.97 1.66 0 3-1.33 3-2.97v-5.62c0.69-0.28 1.33-0.66 1.92-1.11l4.87 2.81c1.42 0.82 3.24 0.32 4.07-1.12 0.83-1.43 0.35-3.26-1.07-4.08l-4.87-2.81C37.96 30.74 38 30.38 38 30c0-0.38-0.04-0.74-0.08-1.11l4.87-2.81c1.42-0.82 1.9-2.65 1.07-4.08 -0.83-1.43-2.65-1.93-4.07-1.11l-4.87 2.81c-0.58-0.45-1.22-0.83-1.91-1.11v-5.62C33 15.33 31.66 14 30 14z" data-animdata="
                {
                    'steps':[
                        {
                            'position':'0',
                            'duration':'3',
                            'vars':{
                                'morphSVG':{
                                    'shape':'M30 22c4.41 0 8 3.58 8 8 0 4.41-3.59 8-8 8 -4.42 0-8-3.59-8-8C22 25.58 25.58 22 30 22z',
                                    'shapeIndex':'auto'
                                },
                                'scale':'0.7',
                                'svgOrigin':'30px 30px'
                            }
                        },
                        {
                            'position':'+=1',
                            'duration':'1',
                            'vars':{
                                'morphSVG':{
                                    'shape':'M30 14c-1.66 0-3 1.33-3 2.97v5.62c-0.69 0.28-1.33 0.66-1.92 1.11l-4.87-2.81c-1.42-0.82-3.24-0.32-4.07 1.12 -0.83 1.43-0.35 3.26 1.07 4.08l4.87 2.81C22.04 29.26 22 29.62 22 30c0 0.38 0.04 0.74 0.08 1.1l-4.87 2.81c-1.42 0.82-1.9 2.65-1.07 4.08 0.83 1.44 2.65 1.94 4.07 1.12l4.87-2.81c0.58 0.45 1.22 0.83 1.92 1.11v5.62c0 1.64 1.34 2.97 3 2.97 1.66 0 3-1.33 3-2.97v-5.62c0.69-0.28 1.33-0.66 1.92-1.11l4.87 2.81c1.42 0.82 3.24 0.32 4.07-1.12 0.83-1.43 0.35-3.26-1.07-4.08l-4.87-2.81C37.96 30.74 38 30.38 38 30c0-0.38-0.04-0.74-0.08-1.11l4.87-2.81c1.42-0.82 1.9-2.65 1.07-4.08 -0.83-1.43-2.65-1.93-4.07-1.11l-4.87 2.81c-0.58-0.45-1.22-0.83-1.91-1.11v-5.62C33 15.33 31.66 14 30 14z',
                                    'shapeIndex':'auto'
                                },
                                'scale':'1',
                                'ease':'none'
                            }
                        }
                    ]
                }
            "/>
		</g>
	</g>
</svg>