<?xml version="1.0" encoding="UTF-8"?>
<svg width="16px" height="16px" viewBox="0 0 16 16" version="1.1" xmlns="http://www.w3.org/2000/svg" xmlns:xlink="http://www.w3.org/1999/xlink">
    <!-- Generator: Sketch 59.1 (86144) - https://sketch.com -->
    <title>vai-tro</title>
    <desc>Created with Sketch.</desc>
    <g id="Cong-dong---Web" stroke="none" stroke-width="1" fill="none" fill-rule="evenodd">
        <path d="M8.00782014,0 C8.5604459,0 9.10524332,0.104267449 9.64222874,0.312805474 C10.1792142,0.5213435 10.6588444,0.792438866 11.0811339,1.12609971 C11.5034234,1.45976055 11.847506,1.83512336 12.113392,2.25219941 C12.379278,2.66927546 12.512219,3.08634526 12.512219,3.50342131 L12.512219,6.0058651 C12.512219,6.30824524 12.4809387,6.65754119 12.4183773,7.05376344 C12.3558159,7.44998569 12.2515485,7.85402205 12.1055718,8.26588465 C11.9595952,8.67774725 11.7667004,9.07396356 11.5268817,9.45454545 C11.287063,9.83512735 10.9951141,10.1609631 10.6510264,10.4320626 L15.0389919,12.5257351 C15.0957599,12.5572729 15.2518723,12.644002 15.5073314,12.7859238 C15.8357788,12.9683945 16,13.205603 16,13.4975562 L16,15.0146628 C16,15.2857622 15.9035526,15.5177573 15.7106549,15.7106549 C15.5177573,15.9035526 15.2857622,16 15.0146628,16 L1.00097752,16 C0.719451183,16 0.482242737,15.9035526 0.289345064,15.7106549 C0.09644739,15.5177573 0,15.2857622 0,15.0146628 L0,13.4975562 C0,13.2264568 0.166827918,12.9944617 0.500488759,12.801564 L1.00097752,12.512219 L5.39589443,10.4320626 C5.04137978,10.1505362 4.74421756,9.81166702 4.50439883,9.41544477 C4.2645801,9.01922252 4.06907863,8.61518616 3.91788856,8.20332356 C3.76669849,7.79146096 3.65982436,7.39003128 3.59726295,6.99902248 C3.53470154,6.60801369 3.50342131,6.27696454 3.50342131,6.0058651 L3.50342131,3.50342131 C3.50342131,3.08634526 3.63375562,2.66927546 3.89442815,2.25219941 C4.15510068,1.83512336 4.49657658,1.45976055 4.91886608,1.12609971 C5.34115558,0.792438866 5.82339253,0.5213435 6.3655914,0.312805474 C6.90779026,0.104267449 7.45519437,0 8.00782014,0 Z M8.00782014,1.00097752 C7.58031718,1.00097752 7.15803402,1.08178479 6.74095797,1.24340176 C6.32388192,1.40501873 5.9485191,1.61094694 5.61485826,1.86119257 C5.28119742,2.1114382 5.01270874,2.38253357 4.80938416,2.6744868 C4.60605959,2.96644004 4.50439883,3.24274878 4.50439883,3.50342131 L4.50439883,3.50342131 L4.50439883,6.0058651 C4.50439883,6.49592946 4.62691308,7.12153415 4.87194526,7.88269795 C5.11697744,8.64386174 5.50016031,9.23297283 6.02150538,9.65004888 L6.02150538,9.65004888 L6.09876856,9.71605095 C6.19636396,9.80864133 6.27227083,9.91958228 6.32649071,10.0488759 C6.39426557,10.2104928 6.41772575,10.3799274 6.39687195,10.5571848 C6.36559124,10.7240152 6.30042409,10.8778097 6.20136852,11.0185728 C6.10231296,11.159336 5.97458534,11.2662101 5.81818182,11.3391984 L5.81818182,11.3391984 L1.42326491,13.4193548 C1.3607035,13.4402086 1.27468285,13.4897357 1.16520039,13.5679374 C1.05571793,13.6461392 1.00097752,13.7895069 1.00097752,13.998045 L1.00097752,13.998045 L1.00097752,15.0146628 L14.9990225,14.9990225 L14.9990225,14.0293255 C14.9990225,13.7582261 14.9338553,13.5887915 14.8035191,13.5210166 C14.6731828,13.4532418 14.6028023,13.4193548 14.5923754,13.4193548 L14.5923754,13.4193548 L10.228739,11.3548387 C10.0723355,11.2818504 9.94200117,11.1749763 9.83773216,11.0342131 C9.73346315,10.8934499 9.67090268,10.7344421 9.65004888,10.5571848 C9.62919507,10.3799274 9.65265525,10.2104928 9.72043011,10.0488759 C9.78820497,9.88725889 9.88986573,9.75431789 10.0254154,9.65004888 C10.5676143,9.23297283 10.9507972,8.64125505 11.1749756,7.87487781 C11.3991539,7.10850057 11.5112414,6.48550256 11.5112414,6.0058651 L11.5112414,6.0058651 L11.5112414,3.50342131 C11.5112414,3.23232188 11.406974,2.95079977 11.198436,2.65884653 C10.9898979,2.36689329 10.7214093,2.09840461 10.3929619,1.85337243 C10.0645145,1.60834025 9.68915167,1.40501873 9.26686217,1.24340176 C8.84457267,1.08178479 8.42489619,1.00097752 8.00782014,1.00097752 Z" id="vai-tro" fill="#9B9B9B" fill-rule="nonzero"></path>
    </g>
</svg>