<svg version="1.1" xmlns="http://www.w3.org/2000/svg" xmlns:xlink="http://www.w3.org/1999/xlink" viewBox="0 0 60 60" xml:space="preserve" data-animoptions="{'duration':'1', 'repeat':'0', 'repeatDelay':'0'}">
	<g class="lievo-main">
		<g class="lievo-common">
			<path class="lievo-donotdraw" fill="#F24D44" stroke="#C0392B" stroke-width="2" stroke-linecap="square" stroke-miterlimit="10" d="M30 7c0.26 0 0.52 0.08 0.72 0.23l1.84 1.43c0.4 0.31 1.11 0.42 1.58 0.25l2.19-0.79c0.47-0.17 1.09 0.03 1.38 0.45l1.31 1.93c0.28 0.42 0.92 0.74 1.43 0.73l2.33-0.07c0.51-0.02 1.03 0.36 1.17 0.85l0.65 2.24c0.14 0.49 0.65 0.99 1.13 1.13L48 16.03c0.49 0.14 0.86 0.67 0.85 1.17l-0.07 2.33c-0.02 0.5 0.31 1.14 0.73 1.43l1.93 1.31c0.42 0.28 0.62 0.9 0.45 1.38l-0.79 2.19c-0.17 0.48-0.06 1.18 0.25 1.58l1.42 1.84c0.31 0.4 0.31 1.05 0 1.45l-1.42 1.84c-0.31 0.4-0.42 1.11-0.25 1.59l0.79 2.19c0.17 0.47-0.03 1.09-0.45 1.38l-1.93 1.31c-0.42 0.28-0.74 0.92-0.73 1.43l0.07 2.33c0.01 0.51-0.37 1.03-0.85 1.17l-2.24 0.65c-0.48 0.14-0.99 0.65-1.13 1.13L43.97 48c-0.14 0.49-0.67 0.86-1.17 0.85l-2.33-0.07c-0.51-0.02-1.15 0.31-1.43 0.73l-1.31 1.93c-0.29 0.42-0.9 0.62-1.38 0.45l-2.19-0.79c-0.48-0.17-1.19-0.06-1.58 0.25l-1.84 1.43c-0.4 0.31-1.05 0.31-1.45 0l-1.84-1.42c-0.4-0.31-1.11-0.42-1.58-0.25l-2.2 0.79c-0.48 0.17-1.09-0.03-1.38-0.45l-1.31-1.93c-0.28-0.42-0.92-0.74-1.43-0.73l-2.33 0.07c-0.51 0.01-1.03-0.37-1.17-0.85l-0.65-2.24c-0.14-0.48-0.65-0.99-1.13-1.13l-2.24-0.65c-0.49-0.14-0.87-0.67-0.85-1.17l0.07-2.33c0.02-0.51-0.31-1.15-0.73-1.43l-1.93-1.31c-0.42-0.29-0.62-0.9-0.45-1.38l0.79-2.19c0.17-0.48 0.06-1.19-0.25-1.59l-1.43-1.84c-0.31-0.4-0.31-1.05 0-1.45l1.43-1.84c0.31-0.4 0.42-1.11 0.25-1.58l-0.79-2.19c-0.17-0.48 0.03-1.09 0.45-1.38l1.93-1.31c0.42-0.28 0.74-0.92 0.73-1.43l-0.07-2.33c-0.02-0.51 0.36-1.03 0.85-1.17l2.24-0.65c0.49-0.14 0.99-0.65 1.13-1.13l0.65-2.24c0.14-0.49 0.67-0.87 1.17-0.85l2.33 0.07c0.5 0.02 1.14-0.31 1.43-0.73l1.31-1.93c0.28-0.42 0.9-0.62 1.38-0.45l2.2 0.79c0.48 0.17 1.18 0.06 1.58-0.25l1.84-1.43C29.48 7.08 29.74 7 30 7z" opacity="0" data-animdata="
                {
                    'steps':[
                        {
                            'position':'6',
                            'duration':'0',
                            'vars':{
                                'opacity':'1',
                                'svgOrigin':'30px 30px'
                            }
                        },
                        {
                            'position':'+=0',
                            'duration':'1',
                            'vars':{
                                'scale':'1.2',
                                'opacity':'0'
                            }
                        }
                    ]
                }
            "/>
			<g data-animdata="
                {
                    'steps':[
                        {
                            'position':'0',
                            'duration':'0.5',
                            'vars':{
                                'scale':'1.2',
                                'svgOrigin':'30px 30px'
                            }
                        },
                        {
                            'position':'+=5',
                            'duration':'0.5',
                            'vars':{
                                'scale':'1'
                            }
                        }
                    ]
                }
            ">
				<path fill="#F24D44" stroke="#C0392B" stroke-width="2" stroke-linecap="square" stroke-miterlimit="10" d="M30 7c0.26 0 0.52 0.08 0.72 0.23l1.84 1.43c0.4 0.31 1.11 0.42 1.58 0.25l2.19-0.79c0.47-0.17 1.09 0.03 1.38 0.45l1.31 1.93c0.28 0.42 0.92 0.74 1.43 0.73l2.33-0.07c0.51-0.02 1.03 0.36 1.17 0.85l0.65 2.24c0.14 0.49 0.65 0.99 1.13 1.13L48 16.03c0.49 0.14 0.86 0.67 0.85 1.17l-0.07 2.33c-0.02 0.5 0.31 1.14 0.73 1.43l1.93 1.31c0.42 0.28 0.62 0.9 0.45 1.38l-0.79 2.19c-0.17 0.48-0.06 1.18 0.25 1.58l1.42 1.84c0.31 0.4 0.31 1.05 0 1.45l-1.42 1.84c-0.31 0.4-0.42 1.11-0.25 1.59l0.79 2.19c0.17 0.47-0.03 1.09-0.45 1.38l-1.93 1.31c-0.42 0.28-0.74 0.92-0.73 1.43l0.07 2.33c0.01 0.51-0.37 1.03-0.85 1.17l-2.24 0.65c-0.48 0.14-0.99 0.65-1.13 1.13L43.97 48c-0.14 0.49-0.67 0.86-1.17 0.85l-2.33-0.07c-0.51-0.02-1.15 0.31-1.43 0.73l-1.31 1.93c-0.29 0.42-0.9 0.62-1.38 0.45l-2.19-0.79c-0.48-0.17-1.19-0.06-1.58 0.25l-1.84 1.43c-0.4 0.31-1.05 0.31-1.45 0l-1.84-1.42c-0.4-0.31-1.11-0.42-1.58-0.25l-2.2 0.79c-0.48 0.17-1.09-0.03-1.38-0.45l-1.31-1.93c-0.28-0.42-0.92-0.74-1.43-0.73l-2.33 0.07c-0.51 0.01-1.03-0.37-1.17-0.85l-0.65-2.24c-0.14-0.48-0.65-0.99-1.13-1.13l-2.24-0.65c-0.49-0.14-0.87-0.67-0.85-1.17l0.07-2.33c0.02-0.51-0.31-1.15-0.73-1.43l-1.93-1.31c-0.42-0.29-0.62-0.9-0.45-1.38l0.79-2.19c0.17-0.48 0.06-1.19-0.25-1.59l-1.43-1.84c-0.31-0.4-0.31-1.05 0-1.45l1.43-1.84c0.31-0.4 0.42-1.11 0.25-1.58l-0.79-2.19c-0.17-0.48 0.03-1.09 0.45-1.38l1.93-1.31c0.42-0.28 0.74-0.92 0.73-1.43l-0.07-2.33c-0.02-0.51 0.36-1.03 0.85-1.17l2.24-0.65c0.49-0.14 0.99-0.65 1.13-1.13l0.65-2.24c0.14-0.49 0.67-0.87 1.17-0.85l2.33 0.07c0.5 0.02 1.14-0.31 1.43-0.73l1.31-1.93c0.28-0.42 0.9-0.62 1.38-0.45l2.2 0.79c0.48 0.17 1.18 0.06 1.58-0.25l1.84-1.43C29.48 7.08 29.74 7 30 7z"/>
				<g>
					<path class="lievo-solidbg lievo-nohoverstroke lievo-altstroke lievo-likestroke" fill="#F9E5A0" stroke="none" d="M21.63 39.2c0.46-0.27 0.77-0.62 0.92-1.07 0.15-0.45 0.12-0.87-0.09-1.28l1.74-1.01c0.28 0.52 0.39 1.09 0.35 1.71 -0.04 0.62-0.25 1.2-0.61 1.76s-0.84 1-1.43 1.35c-1.15 0.67-2.28 0.82-3.39 0.46s-2.04-1.19-2.8-2.51l-0.11-0.19c-0.72-1.25-0.97-2.45-0.73-3.59 0.23-1.14 0.93-2.04 2.09-2.71 0.98-0.56 1.94-0.74 2.89-0.53 0.95 0.21 1.7 0.78 2.27 1.69l-1.74 1.01c-0.29-0.46-0.68-0.76-1.15-0.89 -0.48-0.13-0.95-0.06-1.42 0.21 -0.6 0.35-0.93 0.83-1.01 1.45 -0.07 0.62 0.14 1.38 0.65 2.26l0.17 0.3c0.52 0.89 1.06 1.47 1.64 1.72C20.43 39.6 21.03 39.55 21.63 39.2z" data-animdata="
		                {
		                    'steps':[
		                        {
		                            'position':'0',
		                            'duration':'0.5',
		                            'vars':{
		                                'opacity':'0'
		                            }
		                        },
		                        {
		                            'position':'+=1',
		                            'duration':'0',
		                            'vars':{
		                                'opacity':'1'
		                            }
		                        }
		                    ]
		                }
		            "/>
					<path class="lievo-solidbg lievo-nohoverstroke lievo-altstroke lievo-likestroke" fill="#F9E5A0" stroke="none" d="M30.89 35.82c-1.17 0.68-2.34 0.86-3.49 0.54 -1.16-0.32-2.09-1.09-2.79-2.32l-0.13-0.23c-0.47-0.82-0.74-1.65-0.8-2.48 -0.06-0.83 0.1-1.59 0.46-2.28 0.37-0.69 0.9-1.24 1.61-1.65 1.12-0.65 2.19-0.79 3.22-0.43 1.02 0.36 1.91 1.2 2.67 2.51l0.43 0.75 -5.38 3.11c0.45 0.65 0.99 1.05 1.61 1.22 0.63 0.17 1.24 0.07 1.85-0.27 0.85-0.49 1.34-1.23 1.48-2.22l1.55 0.38c-0.05 0.68-0.27 1.32-0.66 1.91C32.11 34.93 31.57 35.43 30.89 35.82zM26.59 28.89c-0.51 0.29-0.81 0.71-0.92 1.24 -0.11 0.54-0.02 1.14 0.26 1.83l3.52-2.03 -0.08-0.14c-0.4-0.6-0.83-0.97-1.31-1.12C27.6 28.52 27.11 28.6 26.59 28.89z" data-animdata="
		                {
		                    'steps':[
		                        {
		                            'position':'0',
		                            'duration':'0.5',
		                            'vars':{
		                                'opacity':'0'
		                            }
		                        },
		                        {
		                            'position':'+=2',
		                            'duration':'0',
		                            'vars':{
		                                'opacity':'1'
		                            }
		                        }
		                    ]
		                }
		            "/>
					<path class="lievo-solidbg lievo-nohoverstroke lievo-altstroke lievo-likestroke" fill="#F9E5A0" stroke="none" d="M36.07 23.9c-0.27 0.1-0.53 0.22-0.79 0.37 -0.85 0.49-1.23 1.14-1.15 1.96l3.25 5.63 -1.85 1.07 -4.75-8.24 1.77-1.02 0.58 0.89c0.03-0.97 0.45-1.69 1.24-2.15 0.26-0.15 0.5-0.24 0.72-0.27L36.07 23.9z" data-animdata="
		                {
		                    'steps':[
		                        {
		                            'position':'0',
		                            'duration':'0.5',
		                            'vars':{
		                                'opacity':'0'
		                            }
		                        },
		                        {
		                            'position':'+=3',
		                            'duration':'0',
		                            'vars':{
		                                'opacity':'1'
		                            }
		                        }
		                    ]
		                }
		            "/>
					<path class="lievo-solidbg lievo-nohoverstroke lievo-altstroke lievo-likestroke" fill="#F9E5A0" stroke="none" d="M38.21 17.69l1.15 2 1.46-0.84 0.79 1.37 -1.46 0.84 2.65 4.6c0.18 0.31 0.38 0.51 0.58 0.57 0.2 0.07 0.46 0.01 0.79-0.18 0.21-0.12 0.41-0.27 0.6-0.45l0.83 1.43c-0.35 0.36-0.73 0.65-1.12 0.88 -1.42 0.82-2.58 0.45-3.49-1.12l-2.7-4.67 -1.35 0.78 -0.79-1.37 1.35-0.78 -1.15-2L38.21 17.69z" data-animdata="
		                {
		                    'steps':[
		                        {
		                            'position':'0',
		                            'duration':'0.5',
		                            'vars':{
		                                'opacity':'0'
		                            }
		                        },
		                        {
		                            'position':'+=4',
		                            'duration':'0',
		                            'vars':{
		                                'opacity':'1'
		                            }
		                        }
		                    ]
		                }
		            "/>
				</g>
			</g>
		</g>
	</g>
</svg>